<?xml version="1.0" encoding="utf-8"?>
<!-- Generator: Adobe Illustrator 19.0.0, SVG Export Plug-In . SVG Version: 6.00 Build 0)  -->
<svg version="1.1" id="Layer_1" xmlns="http://www.w3.org/2000/svg" xmlns:xlink="http://www.w3.org/1999/xlink" x="0px" y="0px"
	 viewBox="-85 321 440.4 151" style="enable-background:new -85 321 440.4 151;" xml:space="preserve">
<style type="text/css">
	.st0{fill:url(#SVGID_1_);}
	.st1{fill:url(#SVGID_2_);}
	.st2{fill:url(#SVGID_3_);}
	.st3{fill:#FFFFFF;}
	.st4{fill:url(#SVGID_4_);}
</style>
<radialGradient id="SVGID_1_" cx="95.6159" cy="319.9365" r="46.51" gradientTransform="matrix(0.9974 7.201970e-02 -7.201970e-02 0.9974 -26.8657 40.3014)" gradientUnits="userSpaceOnUse">
	<stop  offset="0" style="stop-color:#EEEDEA"/>
	<stop  offset="1" style="stop-color:#EFEEEC"/>
</radialGradient>
<polygon class="st0" points="44,366.4 52.2,350.4 44.7,366.8 52.5,363.4 45,367.4 64.5,375.7 44.8,368.2 49.5,375.3 44.2,368.6 
	43.2,377.1 43.4,368.6 33.9,383.3 42.9,368 34.4,368.5 42.8,367.3 26.1,358.4 43.3,366.7 41.3,358.3 "/>
<radialGradient id="SVGID_2_" cx="94.0345" cy="321.2049" r="8.7899" gradientTransform="matrix(0.9974 7.201970e-02 -7.201970e-02 0.9974 -26.8657 40.3014)" gradientUnits="userSpaceOnUse">
	<stop  offset="0" style="stop-color:#FFFFFF"/>
	<stop  offset="9.000000e-02" style="stop-color:#FFFFFF;stop-opacity:0.95"/>
	<stop  offset="0.25" style="stop-color:#FFFFFF;stop-opacity:0.83"/>
	<stop  offset="0.46" style="stop-color:#FFFFFF;stop-opacity:0.62"/>
	<stop  offset="0.72" style="stop-color:#FFFFFF;stop-opacity:0.34"/>
	<stop  offset="1" style="stop-color:#FFFFFF;stop-opacity:0"/>
</radialGradient>
<path class="st1" d="M52.5,368.1c-0.3,4.8-4.6,8.5-9.4,8.2s-8.5-4.6-8.2-9.4s4.6-8.5,9.4-8.2l0,0C49.3,359,52.9,363.2,52.5,368.1
	C52.6,368.1,52.6,368.1,52.5,368.1z"/>
<linearGradient id="SVGID_3_" gradientUnits="userSpaceOnUse" x1="168.495" y1="364.5872" x2="168.495" y2="331.8852" gradientTransform="matrix(1 0 0 1 0 3.92)">
	<stop  offset="0" style="stop-color:#7290CE;stop-opacity:0"/>
	<stop  offset="1" style="stop-color:#FEFFFA"/>
</linearGradient>
<path class="st2" d="M79.4,364.6l177.6,3.9c6.7,0.3-48.8-32.7-105.1-32.7C123.6,335.8,104.7,342.7,79.4,364.6z"/>
<path class="st3" d="M181.1,331c2.4-2.6,7.1-5.3,8.3-3.9s-0.4,5.3-0.4,5.3L181.1,331z"/>
<linearGradient id="SVGID_4_" gradientUnits="userSpaceOnUse" x1="80.601" y1="355.7846" x2="74.6347" y2="345.0233" gradientTransform="matrix(1 0 0 1 0 3.92)">
	<stop  offset="0" style="stop-color:#7290CE;stop-opacity:0"/>
	<stop  offset="1" style="stop-color:#FEFFFA"/>
</linearGradient>
<path class="st4" d="M100,336.9c-11.7,3.7-40.3,19.5-57.1,32.7c13.2-0.8,20.8-0.5,20.8-0.5c30.8-20.3,32.7-27.5,47.8-31.5
	C104.4,336.9,100,336.9,100,336.9z"/>
<path class="st3" d="M101.8,341.2l-6.1-2.1c14.3-8.5,83-31.7,210.5,32.6c9.5-4.2,23.8-6.4,28.4-5.2c-10.9,1.9-21.5,5.3-31.5,10.1
	C265.9,355.2,164,313.8,101.8,341.2z"/>
<path class="st3" d="M42.9,371.5c-19.8,0.3-102.9,5.2-116.7,25.3c5.3-15.2,25.6-23.2,120.5-30.1C45.7,368.6,44.5,370.2,42.9,371.5z"
	/>
<path class="st3" d="M42.8,368.2c7-0.6,14-0.8,21-0.4c14.8-11.3,37-25.7,37-25.7s-30.5,24-36,28.2c-8.2-0.7-16.4-0.7-24.6,0
	L42.8,368.2z"/>
<path class="st3" d="M-11.8,389.9h32.7c6.8,1,10.2,4,10.1,9l-1.3,6.9H17.8l0.3-1.5c0.7-3.6-1-5.3-5-5.3H-7.6c-4,0-6.4,1.8-7.1,5.3
	l-2.6,13.2c-0.7,3.3,1,5,4.8,5H8.7c3.9,0,6.1-1.7,6.8-5l0.3-1.6h11.9l-1.3,6.7c-1.9,5.1-6.5,8.1-13.6,8.9H-20
	c-6.9-0.8-10.2-3.8-10.1-8.9l4.7-23.6C-23.6,394-19.1,391-11.8,389.9z"/>
<path class="st3" d="M47.8,431.5c-3.1,0.2-6.1-1.1-8.1-3.4c-1.8-2.2-2.5-5.1-1.9-7.9c1.6-6.8,7.6-11.6,14.5-11.6h16
	c2.3-0.1,4.5,1,5.7,3l0.8-3.9c0.2-0.9,0-1.8-0.6-2.5c-0.7-0.8-1.6-1.2-2.7-1.1h-27l4.3-8h28.7c3.5,0,6,1,7.6,2.9s1.9,5.1,1.1,9.4
	l-4.6,23.1h-9.4l-0.7-3.8c-2.3,2.5-4.7,3.8-7.3,3.8H47.8z M73.1,416.4H53.7c-1,0-2,0.3-2.8,1c-0.8,0.6-1.3,1.5-1.5,2.5
	c-0.3,1.5,0.6,3.1,2.2,3.4c0.3,0.1,0.6,0.1,0.8,0.1h19.2L73.1,416.4z"/>
<path class="st3" d="M111.6,396l0.9,4.5c2.8-3,5.7-4.5,9-4.5h14.1l-5.1,9.5h-18.1l-5.1,26H95.7l7-35.4L111.6,396z"/>
<path class="st3" d="M180.2,406.3c1.7,0.1,3.3-0.2,4.9-0.7c1-0.5,1.7-1.5,1.9-2.6c0.4-1.8,0.1-2.9-0.8-3.3c-1.4-0.5-3-0.7-4.5-0.6
	H155l-6.4,32.5h-11.9l8.2-41.5h44.6c6.8,1,10.2,4,10.1,9l-1.2,5.9c-0.2,1.1-0.6,2.1-1.1,3c-0.6,1-1.4,1.9-2.1,2.8
	c0.4,0.6,0.8,1.3,1.1,2c0.3,0.8,0.4,1.7,0.2,2.6l-1.5,7.4c-1.9,5-6.4,8-13.7,9h-25.7l8.3-9H177c1.6,0.1,3.2-0.1,4.7-0.6
	c1.1-0.4,1.7-1.3,2.1-2.9l0.1-0.4c0.4-2.1-1.3-3.2-5.1-3.2H159l8.2-9L180.2,406.3z"/>
<path class="st3" d="M227.5,382.4l-1.7,8.7h-11.5l1.7-8.7H227.5z M224.8,396l-7,35.4h-11.5l7-35.4H224.8z"/>
<path class="st3" d="M271.4,431.5l-0.9-4.4c-2.8,2.9-5.8,4.4-9.1,4.4h-15.9c-3.6,0.1-7.1-1.3-9.5-4c-2.3-2.5-3.3-6-2.5-9.3l1.7-8.8
	c0.8-3.8,3.1-7.1,6.2-9.3c3.1-2.6,7-4,11-4h16.1c2.9,0,5.4,1.5,7.2,4.5c-0.4-1.3-0.4-2.7,0-4.1l2.1-10.6l12.8-7l-10.4,52.5
	L271.4,431.5z M274,405.5h-20.6c-1.6,0-3.2,0.5-4.6,1.5c-1.3,0.9-2.1,2.3-2.4,3.9l-1.2,5.8c-0.4,1.4,0,2.8,0.9,3.9
	c1.1,1,2.5,1.5,4,1.4h20.6L274,405.5z"/>
<path class="st3" d="M86.8,450.6c0.9,0.1,1.9-0.1,2.8-0.4c0.6-0.3,1-0.8,1.1-1.5c0.2-1,0-1.6-0.5-1.9c-0.8-0.3-1.7-0.4-2.5-0.3H68.3
	l1-5.1H92c3.8,0.6,5.7,2.3,5.7,5.1l-0.6,3.3c-0.1,0.6-0.3,1.1-0.6,1.7c-0.3,0.6-0.7,1.1-1.2,1.6c0.2,0.3,0.4,0.7,0.6,1.1
	c0.2,0.5,0.2,0.9,0.1,1.4l-0.8,4.2c-1.1,2.8-3.6,4.5-7.7,5.1H64.7l1-5.1H85c0.9,0,1.8-0.1,2.7-0.3c0.7-0.3,1.1-0.9,1.2-1.6v-0.3
	c0.2-1.2-0.7-1.8-2.9-1.8H70.2l-2.6-5.1L86.8,450.6z"/>
<path class="st3" d="M109.6,453.6l2.9-3.1h16.2c3.9,0.6,5.7,2.3,5.7,5.1l-0.8,4.2c-1.1,2.9-3.6,4.6-7.7,5h-18.5
	c-3.9-0.5-5.8-2.1-5.7-5l2.6-13.3c1.1-2.8,3.6-4.5,7.7-5.1h25.2l-4.6,5.1h-18.1c-2.3,0-3.6,1-4,3L109.6,453.6z M109.3,455.6
	l-0.3,1.3c-0.4,1.9,0.5,2.8,2.7,2.8h12c2.2,0,3.4-0.6,3.7-2c0.2-0.8,0-1.4-0.5-1.7c-0.8-0.3-1.6-0.5-2.5-0.4L109.3,455.6z"/>
<path class="st3" d="M150.6,441.3h18.5c3.9,0.6,5.7,2.3,5.7,5.1l-2.6,13.4c-1.1,2.9-3.6,4.6-7.7,5H146c-3.9-0.4-5.8-2.1-5.7-5
	l2.6-13.3C144,443.6,146.5,441.9,150.6,441.3z M149,449.5l-1.5,7.4c-0.4,1.9,0.5,2.8,2.7,2.8h12c2.2,0,3.5-0.9,3.8-2.8l1.5-7.4
	c0.4-2-0.6-3-2.8-3H153C150.7,446.5,149.4,447.5,149,449.5z"/>
<polygon class="st3" points="-39,464.8 56.7,464.8 57.8,459.3 -38,459.3 "/>
<polygon class="st3" points="180,459.3 178.7,464.8 257.4,464.8 258.4,459.3 "/>
<g>
	<path class="st3" d="M269.2,455.9c3.6,0.1,5.1,2.7,4.7,5.5c-0.4,3-2.5,5.5-6.1,5.4s-5.1-2.6-4.7-5.6
		C263.4,458.4,265.5,455.7,269.2,455.9L269.2,455.9z M264.1,461.2c-0.3,2.5,0.9,4.5,3.8,4.6c2.9,0.1,4.5-1.8,4.9-4.4
		c0.3-2.5-0.9-4.4-3.7-4.5C266.1,456.8,264.4,458.7,264.1,461.2z M270.6,462.4c-0.2,1.6-1,2.2-2.5,2.1c-1.6-0.1-2.2-0.8-2-2.4
		l0.2-1.7c0.2-1.6,1.2-2.2,2.6-2.2c1.3,0,2.1,0.6,2,2.1h-1c0.1-0.9-0.3-1.1-1.1-1.2c-0.8,0-1.3,0.2-1.4,1.2l-0.2,1.7
		c-0.1,1.1,0.3,1.4,1.1,1.4c0.8,0,1.3-0.1,1.4-1.2L270.6,462.4z"/>
</g>
</svg>
