<svg width="66" height="37" viewBox="0 0 66 37" fill="none" xmlns="http://www.w3.org/2000/svg">
<path d="M58.9624 7.61107C54.442 1.22397 41.4886 2.69792 28.5437 10.6193C28.4752 10.3952 28.3896 10.1711 28.2869 9.96421C44.2368 -0.189636 59.9641 -3.04271 64.6301 3.54263C67.5067 7.61107 65.5547 14.4895 60.1525 21.9454C60.0583 20.6611 59.7758 19.6009 59.3134 18.7648C60.9572 14.3947 60.9658 10.4469 58.9624 7.61107Z" fill="#D6212E"/>
<path d="M31.0352 22.3246C31.0352 25.3845 33.2611 26.9016 35.7439 28.3152L37.9528 29.5823C39.1599 30.2632 39.6993 31.039 39.6993 32.0819C39.6993 33.4697 38.6805 34.3316 37.0453 34.3316C34.0317 34.3316 33.1241 31.8061 32.6276 29.3409L32.5505 28.953H31.078V35.909H32.2252L32.3707 35.7452C32.6361 35.4436 32.6361 35.4436 32.893 35.4436C33.3382 35.4263 33.9118 35.5642 34.571 35.7194C35.4015 35.909 36.3432 36.1331 37.3192 36.1331C39.8192 36.1331 43.3294 34.4523 43.3294 30.7028C43.3294 28.0911 41.7712 26.9188 39.8962 25.7552L35.7696 23.29C34.8279 22.7211 34.3655 21.9626 34.3655 20.9713C34.3655 20.1611 35.0077 18.9543 36.7884 18.9543C38.1069 18.9543 39.7336 19.4456 40.5555 23.2986L40.6325 23.6778H42.0794L41.8996 17.4545H40.7438L40.6068 17.6959C40.5469 17.8079 40.4442 17.8769 40.3329 17.8769C40.2729 17.8769 39.9476 17.7648 39.7507 17.7045C39.0144 17.4631 37.9014 17.1097 36.7799 17.1097C33.4495 17.1184 31.0352 19.3077 31.0352 22.3246Z" fill="#0D0C0C"/>
<path d="M4.22934 25.8156C4.22934 20.8938 6.5238 19.1527 8.48437 19.1527C10.6418 19.1527 11.9346 20.98 11.9346 22.747V31.2804C11.6692 32.3837 10.4449 33.1767 9.01518 33.1767C6.81489 33.1767 4.22934 31.2459 4.22934 25.8156ZM15.3934 8.53335L15.2736 8.57645C14.5887 8.82642 11.8918 9.71423 9.70865 10.2573L9.34907 10.3521V11.8777L9.87132 11.826C11.0956 11.6967 11.5579 11.8605 11.7291 12.0157C11.9261 12.1967 11.9432 12.5673 11.9432 13.1534V18.2821C10.8216 17.4805 9.7429 17.1357 8.37307 17.1357C6.19847 17.1357 4.04099 18.2304 2.45713 20.1439C0.898949 22.0057 0 24.5313 0 27.0482C0 35.8746 6.66078 36.1332 7.42275 36.1332C9.28058 36.1332 10.796 35.5557 11.9432 34.4179V35.7798L12.4911 36.1935L18.6553 33.9955V32.5216L18.1416 32.5647C16.943 32.6595 16.4807 32.4871 16.3095 32.3233C16.1297 32.1596 16.0955 31.8665 16.0955 31.3493V8.78332L15.4362 8.51611L15.3934 8.53335Z" fill="#0D0C0C"/>
<path d="M61.4537 34.2196C59.7757 33.9179 59.5531 33.8835 59.5531 31.4269V23.7038C59.5531 19.3336 57.8151 17.1184 54.382 17.1184C52.4471 17.1184 50.6749 17.9459 49.2452 19.506V8.8695L48.6202 8.49023L48.5602 8.51609L48.3976 8.58505C47.5928 8.92121 44.4679 9.85213 43.0296 10.2572L42.6785 10.3521V11.8691L43.2094 11.8088C43.5261 11.7743 43.7744 11.7743 44.1083 11.7743C44.4593 11.7743 44.7162 11.8519 44.8532 11.9984C45.0929 12.2397 45.0843 12.7311 45.0757 13.1189V13.2913V31.3493C45.0757 33.8059 44.9216 34.0128 43.0638 34.2196L42.6357 34.2627V35.7453H51.4797V34.2196L51.4026 34.211C49.6904 34.03 49.2366 33.9783 49.2366 31.3838V22.2902C49.4506 22.0229 51.0259 20.1525 52.9523 20.1525C54.6303 20.1525 55.3751 21.2989 55.3751 23.8589V31.4269C55.3751 33.8145 54.9642 34.0817 53.2177 34.2196H53.1834V35.7539H61.8219V34.2972L61.4537 34.2196Z" fill="#0D0C0C"/>
<path d="M24.7938 35.3919C27.7132 35.3919 29.1858 33.6939 30.2217 31.6769C30.2902 31.5476 30.2389 31.4528 30.1019 31.5131C29.3313 31.8751 27.2937 32.8233 24.7852 32.8233C22.2767 32.8233 20.2477 31.8751 19.4686 31.5131C19.3402 31.4528 19.2802 31.5476 19.3487 31.6769C20.4018 33.6939 21.8743 35.3919 24.7938 35.3919Z" fill="#D6212E"/>
<path d="M20.5302 26.8154C21.335 28.3842 22.4908 29.7547 24.7938 29.7547C27.0968 29.7547 28.2526 28.3842 29.0574 26.8154C29.1087 26.712 29.0659 26.6344 28.9546 26.6775C28.4409 26.9189 26.84 27.6343 24.7938 27.6343C22.7476 27.6343 21.1466 26.9102 20.6329 26.6775C20.5216 26.6258 20.4703 26.7034 20.5302 26.8154Z" fill="#D6212E"/>
<path d="M21.6005 22.3418C22.1912 23.5055 23.0559 24.5743 24.7939 24.5743C26.5319 24.5743 27.3966 23.5055 27.9873 22.3418C28.0301 22.2642 27.9959 22.1953 27.9017 22.2384C27.6277 22.3591 26.412 22.8762 24.7939 22.8762C23.1758 22.8762 21.9601 22.3677 21.6861 22.2384C21.5919 22.1953 21.5577 22.2642 21.6005 22.3418Z" fill="#D6212E"/>
<path d="M24.7939 19.7216C26.0096 19.7216 26.6003 18.9372 26.9856 18.1528C27.0113 18.0925 26.9856 18.0408 26.9086 18.0666C26.8572 18.0839 26.0096 18.4028 24.7939 18.4028C23.5696 18.4028 22.7306 18.0925 22.6792 18.0666C22.6022 18.0408 22.5765 18.0925 22.6022 18.1528C22.9874 18.9372 23.5782 19.7216 24.7939 19.7216Z" fill="#D6212E"/>
<path d="M21.2751 11.8346C21.2751 9.99004 22.7648 8.49023 24.597 8.49023C26.4291 8.49023 27.9188 9.99004 27.9188 11.8346C27.9188 13.6792 26.4291 15.179 24.597 15.179C22.7648 15.179 21.2751 13.6792 21.2751 11.8346Z" fill="#D6212E"/>
<path d="M64.9727 35.8315C64.4076 35.8315 63.9453 35.3661 63.9453 34.7972C63.9453 34.2283 64.4076 33.7628 64.9727 33.7628C65.5377 33.7628 66.0001 34.2283 66.0001 34.7972C66.0001 35.3661 65.5377 35.8315 64.9727 35.8315ZM64.9727 33.8404C64.4504 33.8404 64.0309 34.2628 64.0309 34.7885C64.0309 35.3143 64.4504 35.7367 64.9727 35.7367C65.4949 35.7367 65.9144 35.3143 65.9144 34.7885C65.9144 34.2628 65.4949 33.8404 64.9727 33.8404Z" fill="#0D0C0C"/>
<path d="M64.6387 34.2197H65.0411C65.2808 34.2197 65.4006 34.3232 65.4006 34.53C65.4006 34.6248 65.375 34.6938 65.3236 34.7455C65.2722 34.7972 65.2123 34.8317 65.1352 34.8403L65.4434 35.3144H65.2637L64.964 34.8403H64.8013V35.3144H64.6387V34.2197ZM64.7928 34.7024H64.9811C65.0667 34.7024 65.1352 34.6938 65.178 34.6679C65.2208 34.6421 65.238 34.599 65.238 34.53C65.238 34.4697 65.2208 34.4352 65.1695 34.4094C65.1267 34.3835 65.0667 34.3749 64.9897 34.3749H64.7842V34.7024H64.7928Z" fill="#0D0C0C"/>
</svg>
